<?xml version="1.0" encoding="iso-8859-1"?>
<!-- Generator: Adobe Illustrator 16.0.4, SVG Export Plug-In . SVG Version: 6.00 Build 0)  -->
<!DOCTYPE svg PUBLIC "-//W3C//DTD SVG 1.1//EN" "http://www.w3.org/Graphics/SVG/1.1/DTD/svg11.dtd">
<svg version="1.1" id="Capa_1" xmlns="http://www.w3.org/2000/svg" xmlns:xlink="http://www.w3.org/1999/xlink" x="0px" y="0px"
	 width="32px" height="24px" viewBox="0 0 32 24" style="enable-background:new 0 0 32 24;" xml:space="preserve">
<g id="Laptop">
	<g>
		<path d="M29,0H3C1.346,0,0,1.346,0,3v13c0,1.654,1.346,3,3,3h26c1.654,0,3-1.346,3-3V3C32,1.346,30.654,0,29,0z M30,16
			c0,0.551-0.448,1-1,1H3c-0.552,0-1-0.449-1-1V3c0-0.551,0.448-1,1-1h26c0.552,0,1,0.449,1,1V16z M30.5,21H20c0,0.552-0.447,1-1,1
			h-6c-0.553,0-1-0.448-1-1H1.5C0.672,21,0,21.672,0,22.5S0.672,24,1.5,24h29c0.828,0,1.5-0.672,1.5-1.5S31.328,21,30.5,21z"/>
	</g>
</g>
</svg>
