<?xml version="1.0" encoding="utf-8"?>
<!-- Generator: Adobe Illustrator 16.0.4, SVG Export Plug-In . SVG Version: 6.00 Build 0)  -->
<!DOCTYPE svg PUBLIC "-//W3C//DTD SVG 1.1//EN" "http://www.w3.org/Graphics/SVG/1.1/DTD/svg11.dtd">
<svg version="1.1" id="Layer_1" xmlns="http://www.w3.org/2000/svg" xmlns:xlink="http://www.w3.org/1999/xlink" x="0px" y="0px"
	 width="24px" height="23px" viewBox="0 0 24 23" enable-background="new 0 0 24 23" xml:space="preserve">
<path d="M17.7,8c-2.188,0-2.901,1.403-4.615,1.853C13.377,7.898,14.547,6,18,6c4.746,0,6-3.271,6-5c0-0.552-0.447-1-1-1
	s-1,0.448-1,1c0,0.123-0.046,3-4,3c-5.408,0-6.66,3.709-6.928,5.901C9.234,9.502,8.556,8,6.3,8C3.8,8,0,12.7,0,18.6
	C0,21.4,1.4,23,2.9,23c3.1,0,3.7-5,9.1-5c5.4,0,6,5,9.1,5c1.5,0,2.9-1.4,2.9-4.4C24,12.7,20.2,8,17.7,8z M18,11.7
	c0.7,0,1.3,0.6,1.3,1.3s-0.6,1.3-1.3,1.3s-1.3-0.6-1.3-1.3S17.3,11.7,18,11.7z M9,16H7v2H5v-2H3v-2h2v-2h2v2h2V16z M14.7,15
	c0-0.7,0.6-1.3,1.3-1.3s1.3,0.6,1.3,1.3s-0.6,1.3-1.3,1.3S14.7,15.7,14.7,15z M18,18.3c-0.7,0-1.3-0.6-1.3-1.3s0.6-1.3,1.3-1.3
	s1.3,0.6,1.3,1.3S18.7,18.3,18,18.3z M21.3,15c0,0.7-0.6,1.3-1.3,1.3s-1.3-0.6-1.3-1.3s0.6-1.3,1.3-1.3S21.3,14.3,21.3,15z"/>
</svg>
